<svg width="36" height="36" viewBox="0 0 36 36" fill="none" xmlns="http://www.w3.org/2000/svg">
<g filter="url(#filter0_b_2155_32654)">
<rect width="36" height="36" rx="18" fill="#55555B" fill-opacity="0.3"/>
<path fill-rule="evenodd" clip-rule="evenodd" d="M27.838 17.126L27.609 19.562C27.231 23.574 27.042 25.581 25.859 26.79C24.678 28 22.906 28 19.36 28H16.64C13.095 28 11.323 28 10.14 26.79C8.95696 25.58 8.76896 23.574 8.39096 19.562L8.16096 17.126C7.98096 15.214 7.89096 14.257 8.21896 13.862C8.30141 13.759 8.40358 13.6735 8.51948 13.6105C8.63538 13.5475 8.76269 13.5082 8.89396 13.495C9.36996 13.453 9.96696 14.133 11.162 15.493C11.78 16.197 12.089 16.548 12.433 16.603C12.6251 16.6329 12.8218 16.6015 12.995 16.513C13.314 16.353 13.525 15.918 13.95 15.049L16.187 10.465C16.989 8.822 17.39 8 18 8C18.61 8 19.011 8.822 19.813 10.465L22.05 15.049C22.474 15.919 22.686 16.353 23.005 16.513C23.181 16.602 23.375 16.633 23.567 16.603C23.911 16.548 24.22 16.197 24.838 15.493C26.033 14.133 26.63 13.453 27.106 13.495C27.2372 13.5082 27.3645 13.5475 27.4804 13.6105C27.5963 13.6735 27.6985 13.759 27.781 13.862C28.108 14.257 28.018 15.214 27.838 17.126ZM14.25 24C14.25 23.8011 14.329 23.6103 14.4696 23.4697C14.6103 23.329 14.801 23.25 15 23.25H21C21.1989 23.25 21.3896 23.329 21.5303 23.4697C21.6709 23.6103 21.75 23.8011 21.75 24C21.75 24.1989 21.6709 24.3897 21.5303 24.5303C21.3896 24.671 21.1989 24.75 21 24.75H15C14.801 24.75 14.6103 24.671 14.4696 24.5303C14.329 24.3897 14.25 24.1989 14.25 24Z" fill="#FFE100"/>
</g>
<defs>
<filter id="filter0_b_2155_32654" x="-33.75" y="-33.75" width="103.5" height="103.5" filterUnits="userSpaceOnUse" color-interpolation-filters="sRGB">
<feFlood flood-opacity="0" result="BackgroundImageFix"/>
<feGaussianBlur in="BackgroundImageFix" stdDeviation="16.875"/>
<feComposite in2="SourceAlpha" operator="in" result="effect1_backgroundBlur_2155_32654"/>
<feBlend mode="normal" in="SourceGraphic" in2="effect1_backgroundBlur_2155_32654" result="shape"/>
</filter>
</defs>
</svg>
