<svg width="20" height="21" viewBox="0 0 20 21" fill="none" xmlns="http://www.w3.org/2000/svg">
<path fill-rule="evenodd" clip-rule="evenodd" d="M12.9883 2.99997C13.3009 2.68752 13.7247 2.51199 14.1667 2.51199C14.6086 2.51199 15.0325 2.68752 15.345 2.99997L17.5 5.15497C17.8125 5.46752 17.988 5.89136 17.988 6.3333C17.988 6.77524 17.8125 7.19909 17.5 7.51164L16.1783 8.8333L11.6667 4.32164L12.9883 2.99997ZM10.4883 5.49997L2.98833 13C2.67575 13.3125 2.50009 13.7363 2.5 14.1783V16.3333C2.5 16.7753 2.67559 17.1993 2.98816 17.5118C3.30072 17.8244 3.72464 18 4.16667 18H6.32167C6.76366 17.9999 7.18751 17.8242 7.5 17.5116L15 10.0116L10.4883 5.49997Z" fill="white"/>
</svg>
