<svg width="29" height="28" viewBox="0 0 29 28" fill="none" xmlns="http://www.w3.org/2000/svg">
<path fill-rule="evenodd" clip-rule="evenodd" d="M9.83346 8.16667C9.83346 6.92899 10.3251 5.742 11.2003 4.86683C12.0755 3.99167 13.2624 3.5 14.5001 3.5C15.7378 3.5 16.9248 3.99167 17.8 4.86683C18.6751 5.742 19.1668 6.92899 19.1668 8.16667C19.1668 9.40434 18.6751 10.5913 17.8 11.4665C16.9248 12.3417 15.7378 12.8333 14.5001 12.8333C13.2624 12.8333 12.0755 12.3417 11.2003 11.4665C10.3251 10.5913 9.83346 9.40434 9.83346 8.16667ZM9.83346 15.1667C8.28636 15.1667 6.80263 15.7812 5.70867 16.8752C4.6147 17.9692 4.00012 19.4529 4.00012 21C4.00012 21.9283 4.36887 22.8185 5.02525 23.4749C5.68163 24.1313 6.57186 24.5 7.50012 24.5H21.5001C22.4284 24.5 23.3186 24.1313 23.975 23.4749C24.6314 22.8185 25.0001 21.9283 25.0001 21C25.0001 19.4529 24.3855 17.9692 23.2916 16.8752C22.1976 15.7812 20.7139 15.1667 19.1668 15.1667H9.83346Z" fill="#C8C8C8"/>
</svg>
