<svg width="141" height="41" viewBox="0 0 141 41" fill="none" xmlns="http://www.w3.org/2000/svg">
<path d="M27.6342 15.35V29H23.9092V18.15H18.9592V29H15.2342V15.35H27.6342ZM39.1428 15.1C40.6761 15.1 41.9178 15.7 42.8678 16.9C43.8178 18.0833 44.2928 19.8333 44.2928 22.15C44.2928 23.7 44.0678 25.0083 43.6178 26.075C43.1678 27.125 42.5511 27.9167 41.7678 28.45C40.9844 28.9833 40.0761 29.25 39.0428 29.25C38.3928 29.25 37.8261 29.1667 37.3428 29C36.8761 28.8333 36.4761 28.6167 36.1428 28.35C35.8094 28.0833 35.5178 27.8 35.2678 27.5H35.0678C35.1344 27.8167 35.1844 28.15 35.2178 28.5C35.2511 28.8333 35.2678 29.1667 35.2678 29.5V35H31.5428V15.35H34.5678L35.0928 17.125H35.2678C35.5178 16.7583 35.8178 16.425 36.1678 16.125C36.5178 15.8083 36.9344 15.5583 37.4178 15.375C37.9178 15.1917 38.4928 15.1 39.1428 15.1ZM37.9428 18.075C37.2928 18.075 36.7761 18.2083 36.3928 18.475C36.0094 18.7417 35.7261 19.15 35.5428 19.7C35.3761 20.2333 35.2844 20.9083 35.2678 21.725V22.125C35.2678 23.0083 35.3511 23.7583 35.5178 24.375C35.6844 24.975 35.9678 25.4333 36.3678 25.75C36.7678 26.0667 37.3094 26.225 37.9928 26.225C38.5594 26.225 39.0261 26.0667 39.3928 25.75C39.7594 25.4333 40.0344 24.9667 40.2178 24.35C40.4011 23.7333 40.4928 22.9833 40.4928 22.1C40.4928 20.7667 40.2844 19.7667 39.8678 19.1C39.4678 18.4167 38.8261 18.075 37.9428 18.075ZM59.7631 22.15C59.7631 23.2833 59.6048 24.2917 59.2881 25.175C58.9881 26.0583 58.5464 26.8083 57.9631 27.425C57.3964 28.025 56.7048 28.4833 55.8881 28.8C55.0714 29.1 54.1464 29.25 53.1131 29.25C52.1631 29.25 51.2798 29.1 50.4631 28.8C49.6631 28.4833 48.9714 28.025 48.3881 27.425C47.8048 26.8083 47.3464 26.0583 47.0131 25.175C46.6964 24.2917 46.5381 23.2833 46.5381 22.15C46.5381 20.6333 46.8048 19.3583 47.3381 18.325C47.8714 17.275 48.6381 16.475 49.6381 15.925C50.6381 15.375 51.8214 15.1 53.1881 15.1C54.4714 15.1 55.6048 15.375 56.5881 15.925C57.5714 16.475 58.3464 17.275 58.9131 18.325C59.4798 19.3583 59.7631 20.6333 59.7631 22.15ZM50.3381 22.15C50.3381 23.05 50.4298 23.8083 50.6131 24.425C50.8131 25.025 51.1214 25.4833 51.5381 25.8C51.9548 26.1 52.4964 26.25 53.1631 26.25C53.8298 26.25 54.3631 26.1 54.7631 25.8C55.1798 25.4833 55.4798 25.025 55.6631 24.425C55.8631 23.8083 55.9631 23.05 55.9631 22.15C55.9631 21.25 55.8631 20.5 55.6631 19.9C55.4798 19.3 55.1798 18.85 54.7631 18.55C54.3464 18.25 53.8048 18.1 53.1381 18.1C52.1548 18.1 51.4381 18.4417 50.9881 19.125C50.5548 19.7917 50.3381 20.8 50.3381 22.15ZM72.8166 15.275C74.3999 15.4083 75.7333 15.7833 76.8166 16.4C77.8999 17 78.7166 17.7917 79.2666 18.775C79.8333 19.7583 80.1166 20.8917 80.1166 22.175C80.1166 23.4417 79.8416 24.575 79.2916 25.575C78.7583 26.575 77.9499 27.3833 76.8666 28C75.7999 28.6 74.4499 28.9667 72.8166 29.1V35H69.3666V29.1C67.7999 28.95 66.4666 28.575 65.3666 27.975C64.2833 27.3583 63.4499 26.5583 62.8666 25.575C62.2999 24.575 62.0166 23.4417 62.0166 22.175C62.0166 20.875 62.2749 19.725 62.7916 18.725C63.3249 17.725 64.1333 16.925 65.2166 16.325C66.3166 15.725 67.6999 15.375 69.3666 15.275V10H72.8166V15.275ZM69.3666 18.075C68.6499 18.175 68.0249 18.4167 67.4916 18.8C66.9583 19.1667 66.5499 19.6417 66.2666 20.225C65.9833 20.7917 65.8416 21.4417 65.8416 22.175C65.8416 22.9083 65.9749 23.5667 66.2416 24.15C66.5249 24.7333 66.9249 25.2083 67.4416 25.575C67.9749 25.9417 68.6166 26.175 69.3666 26.275V18.075ZM72.8166 26.275C73.5666 26.175 74.1999 25.9417 74.7166 25.575C75.2333 25.2083 75.6249 24.7333 75.8916 24.15C76.1583 23.5667 76.2916 22.9083 76.2916 22.175C76.2916 21.4417 76.1499 20.7917 75.8666 20.225C75.5833 19.6417 75.1833 19.1667 74.6666 18.8C74.1499 18.4333 73.5333 18.2083 72.8166 18.125V26.275ZM86.8029 20.75C86.8029 21.0333 86.7863 21.3833 86.7529 21.8C86.7363 22.2167 86.7113 22.6417 86.6779 23.075C86.6613 23.5083 86.6363 23.8917 86.6029 24.225C86.5696 24.5583 86.5446 24.7917 86.5279 24.925L92.8279 15.35H97.3029V29H93.7029V23.55C93.7029 23.1 93.7196 22.6083 93.7529 22.075C93.7863 21.525 93.8196 21.0167 93.8529 20.55C93.9029 20.0667 93.9363 19.7 93.9529 19.45L87.6779 29H83.2029V15.35H86.8029V20.75ZM113.421 29H109.696V18.15H106.271C106.104 20.15 105.896 21.8583 105.646 23.275C105.413 24.675 105.113 25.8167 104.746 26.7C104.396 27.5833 103.946 28.2333 103.396 28.65C102.846 29.05 102.171 29.25 101.371 29.25C100.938 29.25 100.546 29.2167 100.196 29.15C99.8461 29.0833 99.5294 28.9833 99.2461 28.85V25.875C99.4294 25.9417 99.6211 26 99.8211 26.05C100.021 26.1 100.229 26.125 100.446 26.125C100.679 26.125 100.896 26.0333 101.096 25.85C101.313 25.6667 101.513 25.3417 101.696 24.875C101.896 24.4083 102.079 23.7667 102.246 22.95C102.413 22.1333 102.563 21.1083 102.696 19.875C102.846 18.625 102.979 17.1167 103.096 15.35H113.421V29ZM123.659 20.625C125.059 20.625 126.218 20.775 127.134 21.075C128.051 21.3583 128.726 21.8 129.159 22.4C129.609 23 129.834 23.75 129.834 24.65C129.834 25.5333 129.626 26.3 129.209 26.95C128.809 27.6 128.168 28.1083 127.284 28.475C126.401 28.825 125.243 29 123.809 29H117.309V15.35H121.034V20.625H123.659ZM126.109 24.7C126.109 24.1667 125.893 23.7833 125.459 23.55C125.043 23.3167 124.418 23.2 123.584 23.2H121.034V26.425H123.634C124.368 26.425 124.959 26.2917 125.409 26.025C125.876 25.7583 126.109 25.3167 126.109 24.7Z" fill="white"/>
<path d="M9.50441 0L11.5206 7.48822L19.0088 9.50441L11.5206 11.5206L9.50441 19.0088L7.48822 11.5206L0 9.50441L7.48822 7.48822L9.50441 0Z" fill="#ADA23D"/>
<path fill-rule="evenodd" clip-rule="evenodd" d="M123.229 34.0399C128.187 35.1817 133.132 32.0882 134.274 27.1303C134.774 24.9587 134.461 22.7895 133.535 20.9414C137.611 22.6348 139.99 27.0684 138.967 31.5126C137.825 36.4705 132.88 39.564 127.922 38.4222C125.136 37.7805 122.939 35.9379 121.751 33.5668C122.222 33.7625 122.716 33.9216 123.229 34.0399Z" fill="#ADA23D"/>
</svg>
