<svg width="29" height="28" viewBox="0 0 29 28" fill="none" xmlns="http://www.w3.org/2000/svg">
<path fill-rule="evenodd" clip-rule="evenodd" d="M9.83333 8.16667C9.83333 6.92899 10.325 5.742 11.2002 4.86683C12.0753 3.99167 13.2623 3.5 14.5 3.5C15.7377 3.5 16.9247 3.99167 17.7998 4.86683C18.675 5.742 19.1667 6.92899 19.1667 8.16667C19.1667 9.40434 18.675 10.5913 17.7998 11.4665C16.9247 12.3417 15.7377 12.8333 14.5 12.8333C13.2623 12.8333 12.0753 12.3417 11.2002 11.4665C10.325 10.5913 9.83333 9.40434 9.83333 8.16667ZM9.83333 15.1667C8.28624 15.1667 6.80251 15.7812 5.70854 16.8752C4.61458 17.9692 4 19.4529 4 21C4 21.9283 4.36875 22.8185 5.02513 23.4749C5.6815 24.1313 6.57174 24.5 7.5 24.5H21.5C22.4283 24.5 23.3185 24.1313 23.9749 23.4749C24.6313 22.8185 25 21.9283 25 21C25 19.4529 24.3854 17.9692 23.2915 16.8752C22.1975 15.7812 20.7138 15.1667 19.1667 15.1667H9.83333Z" fill="url(#paint0_linear_2155_30666)"/>
<defs>
<linearGradient id="paint0_linear_2155_30666" x1="6.79649" y1="10.2" x2="22.191" y2="27.4997" gradientUnits="userSpaceOnUse">
<stop stop-color="#FFE98D"/>
<stop offset="0.1" stop-color="#FED694"/>
<stop offset="0.91" stop-color="#FC3DD3"/>
</linearGradient>
</defs>
</svg>
