<svg width="20" height="21" viewBox="0 0 20 21" fill="none" xmlns="http://www.w3.org/2000/svg">
<path d="M17.2643 11.3833C17.4984 11.149 17.6299 10.8313 17.6299 10.5C17.6299 10.1688 17.4984 9.85105 17.2643 9.61667L12.551 4.90084C12.3165 4.66635 11.9984 4.53461 11.6668 4.53461C11.3352 4.53461 11.0171 4.66635 10.7826 4.90084C10.5482 5.13534 10.4164 5.45338 10.4164 5.78501C10.4164 6.11663 10.5482 6.43468 10.7826 6.66917L13.3626 9.25001L3.75015 9.25001C3.41863 9.25001 3.10069 9.3817 2.86627 9.61612C2.63185 9.85054 2.50015 10.1685 2.50015 10.5C2.50015 10.8315 2.63185 11.1495 2.86627 11.3839C3.10069 11.6183 3.41863 11.75 3.75015 11.75L13.3626 11.75L10.7826 14.33C10.6665 14.4461 10.5744 14.584 10.5116 14.7357C10.4488 14.8874 10.4164 15.05 10.4164 15.2142C10.4164 15.3784 10.4488 15.541 10.5116 15.6927C10.5744 15.8444 10.6665 15.9822 10.7826 16.0983C10.8988 16.2145 11.0366 16.3066 11.1883 16.3694C11.34 16.4322 11.5026 16.4646 11.6668 16.4646C11.831 16.4646 11.9936 16.4322 12.1453 16.3694C12.297 16.3066 12.4349 16.2145 12.551 16.0983L17.2643 11.3833Z" fill="white"/>
</svg>
