<svg width="20" height="21" viewBox="0 0 20 21" fill="none" xmlns="http://www.w3.org/2000/svg">
<g clip-path="url(#clip0_2155_32806)">
<path fill-rule="evenodd" clip-rule="evenodd" d="M17.9549 4.75916C18.1893 4.99357 18.3209 5.31146 18.3209 5.64291C18.3209 5.97437 18.1893 6.29225 17.9549 6.52666L8.58577 15.8958C8.46196 16.0197 8.31496 16.1179 8.15317 16.1849C7.99139 16.252 7.81798 16.2865 7.64286 16.2865C7.46774 16.2865 7.29433 16.252 7.13254 16.1849C6.97076 16.1179 6.82376 16.0197 6.69994 15.8958L2.04494 11.2417C1.92555 11.1264 1.83032 10.9884 1.76481 10.8359C1.6993 10.6834 1.66482 10.5194 1.66338 10.3534C1.66194 10.1874 1.69356 10.0228 1.75641 9.86922C1.81926 9.7156 1.91208 9.57603 2.02945 9.45867C2.14681 9.3413 2.28638 9.24849 2.44 9.18563C2.59362 9.12278 2.75822 9.09116 2.92419 9.0926C3.09017 9.09404 3.25419 9.12852 3.4067 9.19403C3.5592 9.25955 3.69713 9.35477 3.81244 9.47416L7.64244 13.3042L16.1866 4.75916C16.3027 4.643 16.4405 4.55086 16.5922 4.48799C16.7439 4.42512 16.9066 4.39276 17.0708 4.39276C17.235 4.39276 17.3976 4.42512 17.5493 4.48799C17.701 4.55086 17.8389 4.643 17.9549 4.75916Z" fill="white"/>
</g>
<defs>
<clipPath id="clip0_2155_32806">
<rect width="20" height="20" fill="white" transform="translate(0 0.5)"/>
</clipPath>
</defs>
</svg>
