<svg width="63" height="61" viewBox="0 0 63 61" fill="none" xmlns="http://www.w3.org/2000/svg">
    <path d="M23.9114 28.0779C25.5738 26.4794 28.2678 26.4794 29.9265 28.0779C28.2641 26.4794 28.2641 23.8926 29.9265 22.2941C28.2641 23.8926 25.5738 23.8926 23.9114 22.2941C25.5738 23.8926 25.5738 26.4794 23.9114 28.0779Z" stroke="#A88C60" stroke-width="1.02473" stroke-miterlimit="10" stroke-linecap="round" stroke-linejoin="round"/>
    <path d="M29.9266 28.0779L32.2681 30.3294C33.1364 31.1643 33.8637 32.1384 34.3127 33.2373C37.1292 40.1344 27.3439 42.1253 28.1937 34.4647" stroke="#A88C60" stroke-width="1.02473" stroke-miterlimit="10" stroke-linecap="round" stroke-linejoin="round"/>
    <path d="M29.9265 28.0779L32.268 30.3293C33.1363 31.1643 34.1493 31.8636 35.2922 32.2953C42.4651 35.0035 44.5357 25.5946 36.5687 26.4116" stroke="#A88C60" stroke-width="1.02473" stroke-miterlimit="10" stroke-linecap="round" stroke-linejoin="round"/>
    <path d="M41.3667 30.761C41.3667 30.761 38.9325 35.4423 42.5468 40.2128C37.5892 36.7375 32.717 39.0782 32.717 39.0782" stroke="#A88C60" stroke-width="1.02473" stroke-miterlimit="10" stroke-linecap="round" stroke-linejoin="round"/>
    <path d="M29.8078 22.4083L32.1493 20.1568C33.0176 19.3219 34.0307 18.6226 35.1736 18.1909C42.3465 15.4827 44.4171 24.8916 36.4501 24.0746" stroke="#A88C60" stroke-width="1.02473" stroke-miterlimit="10" stroke-linecap="round" stroke-linejoin="round"/>
    <path d="M29.8077 22.4083L32.1492 20.1569C33.0175 19.3219 33.7448 18.3479 34.1938 17.2489C37.0103 10.3519 27.225 8.3609 28.0748 16.0215" stroke="#A88C60" stroke-width="1.02473" stroke-miterlimit="10" stroke-linecap="round" stroke-linejoin="round"/>
    <path d="M32.5983 11.4116C32.5983 11.4116 37.4668 13.7522 42.4281 10.2769C38.8138 15.0438 41.2481 19.7287 41.2481 19.7287" stroke="#A88C60" stroke-width="1.02473" stroke-miterlimit="10" stroke-linecap="round" stroke-linejoin="round"/>
    <path d="M23.9111 28.0779L21.5696 30.3293C20.7013 31.1643 19.6883 31.8636 18.5454 32.2953C11.3725 35.0035 9.30189 25.5946 17.2689 26.4116" stroke="#A88C60" stroke-width="1.02473" stroke-miterlimit="10" stroke-linecap="round" stroke-linejoin="round"/>
    <path d="M23.9112 28.0779L21.5697 30.3294C20.7014 31.1643 19.9741 32.1384 19.5251 33.2373C16.7086 40.1344 26.4939 42.1253 25.6441 34.4647" stroke="#A88C60" stroke-width="1.02473" stroke-miterlimit="10" stroke-linecap="round" stroke-linejoin="round"/>
    <path d="M21.1244 39.0782C21.1244 39.0782 16.2559 36.7375 11.2946 40.2128C14.9089 35.4459 12.4746 30.761 12.4746 30.761" stroke="#A88C60" stroke-width="1.02473" stroke-miterlimit="10" stroke-linecap="round" stroke-linejoin="round"/>
    <path d="M24.03 22.4083L21.6885 20.1569C20.8202 19.3219 20.0929 18.3479 19.6439 17.2489C16.8274 10.3519 26.6127 8.3609 25.7629 16.0215" stroke="#A88C60" stroke-width="1.02473" stroke-miterlimit="10" stroke-linecap="round" stroke-linejoin="round"/>
    <path d="M24.0299 22.4083L21.6884 20.1568C20.8201 19.3219 19.8071 18.6226 18.6641 18.1909C11.4912 15.4827 9.42064 24.8916 17.3876 24.0746" stroke="#A88C60" stroke-width="1.02473" stroke-miterlimit="10" stroke-linecap="round" stroke-linejoin="round"/>
    <path d="M12.5935 19.7287C12.5935 19.7287 15.0278 15.0474 11.4135 10.2769C16.3711 13.7522 21.2433 11.4116 21.2433 11.4116" stroke="#A88C60" stroke-width="1.02473" stroke-miterlimit="10" stroke-linecap="round" stroke-linejoin="round"/>
    <path d="M5.39833 48.8975V5.63849H50.3876" stroke="#A88C60" stroke-width="1.02473" stroke-miterlimit="10" stroke-linecap="round" stroke-linejoin="round"/>
    <path d="M10.2224 53.7857C8.86427 54.2281 7.01262 53.6786 5.94763 51.3344C5.558 50.471 5.39843 49.5254 5.39843 48.587C5.39843 49.5219 5.23515 50.4745 4.84181 51.338C3.78425 53.6786 1.93258 54.2281 0.574442 53.7857C1.08653 53.9748 4.68967 55.4234 5.39843 59.7479C6.10718 55.4234 9.70662 53.9748 10.2224 53.7857Z" stroke="#A88C60" stroke-width="1.02473" stroke-miterlimit="10" stroke-linecap="round" stroke-linejoin="round"/>
    <path d="M55.7942 1C56.2543 2.3059 55.6829 4.08636 53.2449 5.11039C52.3469 5.48503 51.3599 5.63846 50.3876 5.63846C51.3599 5.63846 52.3506 5.79545 53.2486 6.17367C55.6829 7.19056 56.2543 8.97101 55.7942 10.2769C55.9909 9.78453 57.4974 6.31996 61.9949 5.63846C57.4974 4.95696 55.9871 1.49239 55.7942 1Z" stroke="#A88C60" stroke-width="1.02473" stroke-miterlimit="10" stroke-linecap="round" stroke-linejoin="round"/>
</svg>
