<svg width="63" height="61" viewBox="0 0 63 61" fill="none" xmlns="http://www.w3.org/2000/svg">
<path d="M39.0835 32.6699C37.4211 34.2684 34.7271 34.2684 33.0684 32.6699C34.7308 34.2684 34.7308 36.8553 33.0684 38.4537C34.7308 36.8553 37.4211 36.8553 39.0835 38.4537C37.4211 36.8553 37.4211 34.2684 39.0835 32.6699Z" stroke="#A88C60" stroke-width="1.02473" stroke-miterlimit="10" stroke-linecap="round" stroke-linejoin="round"/>
<path d="M33.0682 32.6699L30.7267 30.4185C29.8584 29.5836 29.1311 28.6095 28.6821 27.5105C25.8656 20.6135 35.6509 18.6225 34.8011 26.2831" stroke="#A88C60" stroke-width="1.02473" stroke-miterlimit="10" stroke-linecap="round" stroke-linejoin="round"/>
<path d="M33.0684 32.67L30.7269 30.4185C29.8586 29.5836 28.8455 28.8843 27.7026 28.4525C20.5297 25.7444 18.4591 35.1533 26.4261 34.3362" stroke="#A88C60" stroke-width="1.02473" stroke-miterlimit="10" stroke-linecap="round" stroke-linejoin="round"/>
<path d="M21.628 29.9868C21.628 29.9868 24.0623 25.3055 20.448 20.5351C25.4056 24.0103 30.2778 21.6697 30.2778 21.6697" stroke="#A88C60" stroke-width="1.02473" stroke-miterlimit="10" stroke-linecap="round" stroke-linejoin="round"/>
<path d="M33.187 38.3396L30.8456 40.591C29.9772 41.4259 28.9642 42.1253 27.8213 42.557C20.6484 45.2652 18.5778 35.8562 26.5448 36.6733" stroke="#A88C60" stroke-width="1.02473" stroke-miterlimit="10" stroke-linecap="round" stroke-linejoin="round"/>
<path d="M33.1871 38.3396L30.8456 40.591C29.9773 41.4259 29.25 42.4 28.801 43.499C25.9845 50.396 35.7698 52.387 34.92 44.7264" stroke="#A88C60" stroke-width="1.02473" stroke-miterlimit="10" stroke-linecap="round" stroke-linejoin="round"/>
<path d="M30.3964 49.3363C30.3964 49.3363 25.5279 46.9957 20.5667 50.4709C24.1809 45.704 21.7467 41.0192 21.7467 41.0192" stroke="#A88C60" stroke-width="1.02473" stroke-miterlimit="10" stroke-linecap="round" stroke-linejoin="round"/>
<path d="M39.0835 32.67L41.425 30.4185C42.2933 29.5836 43.3063 28.8843 44.4492 28.4525C51.6221 25.7444 53.6927 35.1533 45.7257 34.3362" stroke="#A88C60" stroke-width="1.02473" stroke-miterlimit="10" stroke-linecap="round" stroke-linejoin="round"/>
<path d="M39.0835 32.6699L41.425 30.4185C42.2933 29.5836 43.0206 28.6095 43.4696 27.5105C46.2861 20.6135 36.5008 18.6225 37.3506 26.2831" stroke="#A88C60" stroke-width="1.02473" stroke-miterlimit="10" stroke-linecap="round" stroke-linejoin="round"/>
<path d="M41.8704 21.6697C41.8704 21.6697 46.7389 24.0103 51.7002 20.5351C48.0859 25.302 50.5201 29.9868 50.5201 29.9868" stroke="#A88C60" stroke-width="1.02473" stroke-miterlimit="10" stroke-linecap="round" stroke-linejoin="round"/>
<path d="M38.9646 38.3396L41.3061 40.591C42.1744 41.4259 42.9017 42.4 43.3507 43.499C46.1672 50.396 36.3819 52.387 37.2317 44.7264" stroke="#A88C60" stroke-width="1.02473" stroke-miterlimit="10" stroke-linecap="round" stroke-linejoin="round"/>
<path d="M38.9648 38.3396L41.3063 40.591C42.1746 41.4259 43.1877 42.1253 44.3306 42.557C51.5035 45.2652 53.5741 35.8562 45.6071 36.6733" stroke="#A88C60" stroke-width="1.02473" stroke-miterlimit="10" stroke-linecap="round" stroke-linejoin="round"/>
<path d="M50.4012 41.0192C50.4012 41.0192 47.967 45.7005 51.5813 50.4709C46.6237 46.9957 41.7515 49.3363 41.7515 49.3363" stroke="#A88C60" stroke-width="1.02473" stroke-miterlimit="10" stroke-linecap="round" stroke-linejoin="round"/>
<path d="M57.5964 11.8504V55.1094H12.6072" stroke="#A88C60" stroke-width="1.02473" stroke-miterlimit="10" stroke-linecap="round" stroke-linejoin="round"/>
<path d="M52.7725 6.96219C54.1306 6.51975 55.9823 7.06923 57.0472 9.41343C57.4369 10.2769 57.5964 11.2224 57.5964 12.1608C57.5964 11.226 57.7597 10.2733 58.1531 9.40987C59.2106 7.06923 61.0623 6.51975 62.4204 6.96219C61.9083 6.77308 58.3052 5.32445 57.5964 0.999982C56.8877 5.32445 53.2883 6.77308 52.7725 6.96219Z" stroke="#A88C60" stroke-width="1.02473" stroke-miterlimit="10" stroke-linecap="round" stroke-linejoin="round"/>
<path d="M7.20068 59.7479C6.74055 58.442 7.312 56.6615 9.74997 55.6375C10.648 55.2628 11.635 55.1094 12.6072 55.1094C11.635 55.1094 10.6443 54.9524 9.74626 54.5742C7.312 53.5573 6.74055 51.7769 7.20068 50.4709C7.00401 50.9633 5.49744 54.4279 1 55.1094C5.49744 55.7909 7.00772 59.2555 7.20068 59.7479Z" stroke="#A88C60" stroke-width="1.02473" stroke-miterlimit="10" stroke-linecap="round" stroke-linejoin="round"/>
</svg>
