<svg width="29" height="28" viewBox="0 0 29 28" fill="none" xmlns="http://www.w3.org/2000/svg">
<g clip-path="url(#clip0_2155_30658)">
<path d="M22.6593 15.4543C21.4559 16.9097 20.0944 18.4053 18.625 19.8748C17.1556 21.3442 15.6601 22.7063 14.2049 23.9092C14.3031 23.9127 14.4011 23.9167 14.5001 23.9167C16.6653 23.9142 18.7411 23.053 20.2721 21.522C21.8031 19.991 22.6643 17.9152 22.6668 15.75C22.6668 15.6508 22.6628 15.5525 22.6593 15.4543ZM26.0501 4.20073C24.9187 3.06892 22.8467 3.47025 19.7157 5.42733C18.5627 6.15829 17.4506 6.95184 16.3844 7.80442C15.0286 7.48172 13.6127 7.5116 12.2717 7.89122C10.9308 8.27083 9.70933 8.98753 8.72384 9.97301C7.73836 10.9585 7.02166 12.1799 6.64205 13.5209C6.26243 14.8619 6.23255 16.2778 6.55525 17.6336C5.70262 18.6997 4.90907 19.8118 4.17816 20.9649C2.22093 24.096 1.81931 26.168 2.9501 27.3C3.166 27.5104 3.42265 27.6744 3.70426 27.7819C3.98587 27.8894 4.28649 27.9382 4.58766 27.9253C5.75039 27.9253 7.306 27.3101 9.28452 26.0733C11.8502 24.4691 14.8742 21.9753 17.7994 19.0505C20.7247 16.1257 23.2186 13.1012 24.8222 10.5356C26.7793 7.40396 27.1809 5.33196 26.0501 4.20073ZM22.4976 9.8385C20.979 12.1402 18.725 14.826 16.1505 17.3998C13.576 19.9736 10.8909 22.2284 8.58918 23.7469C6.32425 25.2411 5.10377 25.5799 4.65504 25.5956C4.67079 25.1472 5.00956 23.9264 6.50377 21.6615C6.83495 21.1595 7.20377 20.6385 7.59985 20.1052C8.02981 20.7845 8.55684 21.3974 9.1642 21.9241C11.35 20.2991 13.4096 18.5109 15.3255 16.575C17.2614 14.6592 19.0496 12.5997 20.6747 10.4141C20.1478 9.80645 19.5349 9.27921 18.8553 8.84917C19.3886 8.45235 19.9096 8.08427 20.4116 7.75308C22.6765 6.25888 23.897 5.9201 24.3457 5.90435C24.33 6.35294 23.9912 7.57356 22.497 9.8385H22.4976ZM4.0001 4.66667C4.77338 4.66755 5.51473 4.97513 6.06151 5.52192C6.6083 6.06871 6.91588 6.81006 6.91677 7.58333C6.91677 7.73804 6.97822 7.88642 7.08762 7.99581C7.19702 8.10521 7.34539 8.16667 7.5001 8.16667C7.65481 8.16667 7.80318 8.10521 7.91258 7.99581C8.02198 7.88642 8.08343 7.73804 8.08343 7.58333C8.08432 6.81006 8.3919 6.06871 8.93869 5.52192C9.48547 4.97513 10.2268 4.66755 11.0001 4.66667C11.1548 4.66667 11.3032 4.60521 11.4126 4.49581C11.522 4.38642 11.5834 4.23804 11.5834 4.08333C11.5834 3.92862 11.522 3.78025 11.4126 3.67085C11.3032 3.56146 11.1548 3.5 11.0001 3.5C10.2268 3.49911 9.48547 3.19154 8.93869 2.64475C8.3919 2.09796 8.08432 1.35661 8.08343 0.583333C8.08343 0.428624 8.02198 0.280251 7.91258 0.170854C7.80318 0.0614582 7.65481 0 7.5001 0C7.34539 0 7.19702 0.0614582 7.08762 0.170854C6.97822 0.280251 6.91677 0.428624 6.91677 0.583333C6.91588 1.35661 6.6083 2.09796 6.06151 2.64475C5.51473 3.19154 4.77338 3.49911 4.0001 3.5C3.84539 3.5 3.69702 3.56146 3.58762 3.67085C3.47822 3.78025 3.41677 3.92862 3.41677 4.08333C3.41677 4.23804 3.47822 4.38642 3.58762 4.49581C3.69702 4.60521 3.84539 4.66667 4.0001 4.66667Z" fill="#C8C8C8"/>
<path d="M22.6667 25.6667C23.311 25.6667 23.8333 25.1443 23.8333 24.5C23.8333 23.8557 23.311 23.3333 22.6667 23.3333C22.0223 23.3333 21.5 23.8557 21.5 24.5C21.5 25.1443 22.0223 25.6667 22.6667 25.6667Z" fill="#C8C8C8"/>
<path d="M2.83341 16.3333C3.47775 16.3333 4.00008 15.811 4.00008 15.1667C4.00008 14.5223 3.47775 14 2.83341 14C2.18908 14 1.66675 14.5223 1.66675 15.1667C1.66675 15.811 2.18908 16.3333 2.83341 16.3333Z" fill="#C8C8C8"/>
<path d="M26.1667 15.1667C26.811 15.1667 27.3333 14.6443 27.3333 14C27.3333 13.3557 26.811 12.8333 26.1667 12.8333C25.5223 12.8333 25 13.3557 25 14C25 14.6443 25.5223 15.1667 26.1667 15.1667Z" fill="#C8C8C8"/>
</g>
<defs>
<clipPath id="clip0_2155_30658">
<rect width="28" height="28" fill="white" transform="translate(0.5)"/>
</clipPath>
</defs>
</svg>
