<svg width="20" height="21" viewBox="0 0 20 21" fill="none" xmlns="http://www.w3.org/2000/svg">
<path d="M10.0999 15.3166C9.45546 15.3389 8.83902 15.2335 8.25058 15.0006C7.66213 14.7678 7.14525 14.4286 6.69991 13.9833C6.25458 13.538 5.91547 13.038 5.68258 12.4833C5.44969 11.9286 5.33325 11.3398 5.33325 10.7167C5.33325 10.4944 5.34436 10.278 5.36658 10.0673C5.3888 9.85665 5.43325 9.65088 5.49992 9.44999C5.5888 9.18332 5.58347 8.91666 5.48392 8.64999C5.38436 8.38332 5.21192 8.19443 4.96658 8.08332C4.69992 7.97221 4.43903 7.97221 4.18392 8.08332C3.92881 8.19443 3.75636 8.38332 3.66658 8.64999C3.55547 8.98332 3.47236 9.31665 3.41725 9.64999C3.36214 9.98332 3.33414 10.3278 3.33325 10.6833C3.33325 11.5722 3.5057 12.4224 3.85058 13.234C4.19547 14.0455 4.67858 14.762 5.29992 15.3833C5.89991 16.0055 6.60569 16.4833 7.41724 16.8166C8.2288 17.15 9.06746 17.3278 9.93324 17.35L9.36657 17.9166C9.16657 18.1166 9.06658 18.35 9.06658 18.6166C9.06658 18.8833 9.16657 19.1166 9.36657 19.3166C9.56657 19.5166 9.79991 19.6166 10.0666 19.6166C10.3332 19.6166 10.5666 19.5166 10.7666 19.3166L12.8999 17.1833C13.1666 16.9166 13.2999 16.6055 13.2999 16.25C13.2999 15.8944 13.1666 15.5833 12.8999 15.3166L10.7666 13.1833C10.5666 12.9833 10.3332 12.8833 10.0666 12.8833C9.79991 12.8833 9.56657 12.9833 9.36657 13.1833C9.16657 13.3833 9.06658 13.6166 9.06658 13.8833C9.06658 14.15 9.16657 14.3833 9.36657 14.5833L10.0999 15.3166Z" fill="white"/>
<path d="M9.86657 6.01666C10.511 6.01666 11.1332 6.13355 11.7332 6.36732C12.3332 6.6011 12.8555 6.93977 13.2999 7.38332C13.7443 7.82688 14.0835 8.32688 14.3172 8.88332C14.551 9.43976 14.6675 10.0287 14.6666 10.65C14.6666 10.8722 14.6555 11.0887 14.6332 11.2993C14.611 11.51 14.5666 11.7158 14.4999 11.9166C14.411 12.1833 14.4168 12.4553 14.5172 12.7326C14.6177 13.01 14.7897 13.2046 15.0332 13.3166C15.2999 13.4278 15.5612 13.4278 15.8172 13.3166C16.0732 13.2055 16.2452 13.0166 16.3332 12.75C16.4443 12.4166 16.5279 12.0775 16.5839 11.7326C16.6399 11.3878 16.6675 11.038 16.6666 10.6833C16.6666 9.79443 16.5052 8.94465 16.1826 8.13399C15.8599 7.32332 15.3768 6.59532 14.7332 5.94999C14.111 5.32777 13.3946 4.85577 12.5839 4.534C11.7732 4.21222 10.9341 4.05088 10.0666 4.05L10.6666 3.45C10.8444 3.25 10.9332 3.01666 10.9332 2.75C10.9332 2.48333 10.8332 2.25 10.6332 2.05C10.4332 1.85 10.1999 1.75 9.93324 1.75C9.66657 1.75 9.43324 1.85 9.23324 2.05L7.09991 4.18333C6.83325 4.45 6.69991 4.76111 6.69991 5.11666C6.69991 5.47222 6.83325 5.78333 7.09991 6.04999L9.23324 8.18332C9.43324 8.38332 9.66657 8.48332 9.93324 8.48332C10.1999 8.48332 10.4332 8.38332 10.6332 8.18332C10.8332 7.98332 10.9332 7.74999 10.9332 7.48332C10.9332 7.21666 10.8332 6.98332 10.6332 6.78332L9.86657 6.01666Z" fill="white"/>
</svg>
