<svg width="129" height="41" viewBox="0 0 129 41" fill="none" xmlns="http://www.w3.org/2000/svg">
    <path d="M27.5894 17.15H23.1144V28H19.3894V17.15H14.9144V14.35H27.5894V17.15ZM35.7077 14.075C37.541 14.075 38.941 14.475 39.9077 15.275C40.891 16.0583 41.3827 17.2667 41.3827 18.9V28H38.7827L38.0577 26.15H37.9577C37.5744 26.6333 37.1744 27.0333 36.7577 27.35C36.3577 27.6667 35.891 27.8917 35.3577 28.025C34.841 28.175 34.1994 28.25 33.4327 28.25C32.6327 28.25 31.9077 28.1 31.2577 27.8C30.6244 27.4833 30.1244 27.0083 29.7577 26.375C29.391 25.725 29.2077 24.9083 29.2077 23.925C29.2077 22.475 29.716 21.4083 30.7327 20.725C31.7494 20.025 33.2744 19.6417 35.3077 19.575L37.6827 19.5V18.9C37.6827 18.1833 37.491 17.6583 37.1077 17.325C36.741 16.9917 36.2244 16.825 35.5577 16.825C34.891 16.825 34.241 16.925 33.6077 17.125C32.9744 17.3083 32.341 17.5417 31.7077 17.825L30.4827 15.3C31.216 14.9167 32.0244 14.6167 32.9077 14.4C33.8077 14.1833 34.741 14.075 35.7077 14.075ZM36.2327 21.725C35.0327 21.7583 34.1994 21.975 33.7327 22.375C33.266 22.775 33.0327 23.3 33.0327 23.95C33.0327 24.5167 33.1994 24.925 33.5327 25.175C33.866 25.4083 34.2994 25.525 34.8327 25.525C35.6327 25.525 36.3077 25.2917 36.8577 24.825C37.4077 24.3417 37.6827 23.6667 37.6827 22.8V21.675L36.2327 21.725ZM52.7956 14.1C54.3289 14.1 55.5706 14.7 56.5206 15.9C57.4706 17.0833 57.9456 18.8333 57.9456 21.15C57.9456 22.7 57.7206 24.0083 57.2706 25.075C56.8206 26.125 56.2039 26.9167 55.4206 27.45C54.6373 27.9833 53.7289 28.25 52.6956 28.25C52.0456 28.25 51.4789 28.1667 50.9956 28C50.5289 27.8333 50.1289 27.6167 49.7956 27.35C49.4623 27.0833 49.1706 26.8 48.9206 26.5H48.7206C48.7873 26.8167 48.8373 27.15 48.8706 27.5C48.9039 27.8333 48.9206 28.1667 48.9206 28.5V34H45.1956V14.35H48.2206L48.7456 16.125H48.9206C49.1706 15.7583 49.4706 15.425 49.8206 15.125C50.1706 14.8083 50.5873 14.5583 51.0706 14.375C51.5706 14.1917 52.1456 14.1 52.7956 14.1ZM51.5956 17.075C50.9456 17.075 50.4289 17.2083 50.0456 17.475C49.6623 17.7417 49.3789 18.15 49.1956 18.7C49.0289 19.2333 48.9373 19.9083 48.9206 20.725V21.125C48.9206 22.0083 49.0039 22.7583 49.1706 23.375C49.3373 23.975 49.6206 24.4333 50.0206 24.75C50.4206 25.0667 50.9623 25.225 51.6456 25.225C52.2123 25.225 52.6789 25.0667 53.0456 24.75C53.4123 24.4333 53.6873 23.9667 53.8706 23.35C54.0539 22.7333 54.1456 21.9833 54.1456 21.1C54.1456 19.7667 53.9373 18.7667 53.5206 18.1C53.1206 17.4167 52.4789 17.075 51.5956 17.075ZM64.6159 19.75C64.6159 20.0333 64.5993 20.3833 64.5659 20.8C64.5493 21.2167 64.5243 21.6417 64.4909 22.075C64.4743 22.5083 64.4493 22.8917 64.4159 23.225C64.3826 23.5583 64.3576 23.7917 64.3409 23.925L70.6409 14.35H75.1159V28H71.5159V22.55C71.5159 22.1 71.5326 21.6083 71.5659 21.075C71.5993 20.525 71.6326 20.0167 71.6659 19.55C71.7159 19.0667 71.7493 18.7 71.7659 18.45L65.4909 28H61.0159V14.35H64.6159V19.75ZM88.9841 14.275C90.5674 14.4083 91.9007 14.7833 92.9841 15.4C94.0674 16 94.8841 16.7917 95.4341 17.775C96.0007 18.7583 96.2841 19.8917 96.2841 21.175C96.2841 22.4417 96.0091 23.575 95.4591 24.575C94.9258 25.575 94.1174 26.3833 93.0341 27C91.9674 27.6 90.6174 27.9667 88.9841 28.1V34H85.5341V28.1C83.9674 27.95 82.6341 27.575 81.5341 26.975C80.4507 26.3583 79.6174 25.5583 79.0341 24.575C78.4674 23.575 78.1841 22.4417 78.1841 21.175C78.1841 19.875 78.4424 18.725 78.9591 17.725C79.4924 16.725 80.3007 15.925 81.3841 15.325C82.4841 14.725 83.8674 14.375 85.5341 14.275V9H88.9841V14.275ZM85.5341 17.075C84.8174 17.175 84.1924 17.4167 83.6591 17.8C83.1257 18.1667 82.7174 18.6417 82.4341 19.225C82.1507 19.7917 82.0091 20.4417 82.0091 21.175C82.0091 21.9083 82.1424 22.5667 82.4091 23.15C82.6924 23.7333 83.0924 24.2083 83.6091 24.575C84.1424 24.9417 84.7841 25.175 85.5341 25.275V17.075ZM88.9841 25.275C89.7341 25.175 90.3674 24.9417 90.8841 24.575C91.4007 24.2083 91.7924 23.7333 92.0591 23.15C92.3257 22.5667 92.4591 21.9083 92.4591 21.175C92.4591 20.4417 92.3174 19.7917 92.0341 19.225C91.7507 18.6417 91.3507 18.1667 90.8341 17.8C90.3174 17.4333 89.7007 17.2083 88.9841 17.125V25.275ZM99.3704 28V14.35H103.095V19.625H104.895C106.295 19.625 107.445 19.775 108.345 20.075C109.245 20.3583 109.912 20.8 110.345 21.4C110.795 22 111.02 22.75 111.02 23.65C111.02 24.5333 110.812 25.3 110.395 25.95C109.995 26.6 109.354 27.1083 108.47 27.475C107.604 27.825 106.454 28 105.02 28H99.3704ZM104.82 25.425C105.554 25.425 106.145 25.2917 106.595 25.025C107.062 24.7583 107.295 24.3167 107.295 23.7C107.295 23.1667 107.079 22.7833 106.645 22.55C106.229 22.3167 105.604 22.2 104.77 22.2H103.095V25.425H104.82ZM112.995 28V14.35H116.72V28H112.995Z" fill="white"/>
    <path d="M9.50441 0L11.5206 7.48822L19.0088 9.50441L11.5206 11.5206L9.50441 19.0088L7.48822 11.5206L0 9.50441L7.48822 7.48822L9.50441 0Z" fill="#ADA23D"/>
    <path fill-rule="evenodd" clip-rule="evenodd" d="M111.23 34.0399C116.187 35.1817 121.132 32.0882 122.274 27.1303C122.774 24.9587 122.462 22.7895 121.536 20.9414C125.611 22.6348 127.99 27.0684 126.967 31.5126C125.825 36.4705 120.88 39.564 115.923 38.4222C113.136 37.7805 110.939 35.9379 109.751 33.5668C110.222 33.7625 110.716 33.9216 111.23 34.0399Z" fill="#ADA23D"/>
</svg>
