<svg width="29" height="28" viewBox="0 0 29 28" fill="none" xmlns="http://www.w3.org/2000/svg">
<g clip-path="url(#clip0_2155_27114)">
<path d="M22.6592 15.4543C21.4558 16.9097 20.0943 18.4053 18.6249 19.8748C17.1555 21.3442 15.6599 22.7063 14.2048 23.9092C14.303 23.9127 14.401 23.9167 14.5 23.9167C16.6652 23.9142 18.741 23.053 20.272 21.522C21.803 19.991 22.6642 17.9152 22.6666 15.75C22.6666 15.6508 22.6627 15.5525 22.6592 15.4543ZM26.05 4.20073C24.9186 3.06892 22.8466 3.47025 19.7156 5.42733C18.5626 6.15829 17.4505 6.95184 16.3843 7.80442C15.0285 7.48172 13.6126 7.5116 12.2716 7.89122C10.9306 8.27083 9.7092 8.98753 8.72372 9.97301C7.73824 10.9585 7.02154 12.1799 6.64192 13.5209C6.26231 14.8619 6.23243 16.2778 6.55512 17.6336C5.7025 18.6997 4.90895 19.8118 4.17804 20.9649C2.22081 24.096 1.81919 26.168 2.94998 27.3C3.16588 27.5104 3.42253 27.6744 3.70414 27.7819C3.98575 27.8894 4.28637 27.9382 4.58754 27.9253C5.75027 27.9253 7.30587 27.3101 9.28439 26.0733C11.85 24.4691 14.874 21.9753 17.7993 19.0505C20.7246 16.1257 23.2185 13.1012 24.8221 10.5356C26.7791 7.40396 27.1808 5.33196 26.05 4.20073ZM22.4975 9.8385C20.9789 12.1402 18.7249 14.826 16.1504 17.3998C13.5758 19.9736 10.8907 22.2284 8.58906 23.7469C6.32412 25.2411 5.10364 25.5799 4.65492 25.5956C4.67067 25.1472 5.00944 23.9264 6.50364 21.6615C6.83483 21.1595 7.20364 20.6385 7.59973 20.1052C8.02969 20.7845 8.55672 21.3974 9.16408 21.9241C11.3499 20.2991 13.4095 18.5109 15.3254 16.575C17.2613 14.6592 19.0495 12.5997 20.6746 10.4141C20.1477 9.80645 19.5348 9.27921 18.8551 8.84917C19.3885 8.45235 19.9095 8.08427 20.4115 7.75308C22.6764 6.25888 23.8969 5.9201 24.3456 5.90435C24.3299 6.35294 23.9911 7.57356 22.4969 9.8385H22.4975ZM3.99998 4.66667C4.77325 4.66755 5.5146 4.97513 6.06139 5.52192C6.60818 6.06871 6.91576 6.81006 6.91664 7.58333C6.91664 7.73804 6.9781 7.88642 7.0875 7.99581C7.1969 8.10521 7.34527 8.16667 7.49998 8.16667C7.65469 8.16667 7.80306 8.10521 7.91246 7.99581C8.02185 7.88642 8.08331 7.73804 8.08331 7.58333C8.0842 6.81006 8.39177 6.06871 8.93856 5.52192C9.48535 4.97513 10.2267 4.66755 11 4.66667C11.1547 4.66667 11.3031 4.60521 11.4125 4.49581C11.5219 4.38642 11.5833 4.23804 11.5833 4.08333C11.5833 3.92862 11.5219 3.78025 11.4125 3.67085C11.3031 3.56146 11.1547 3.5 11 3.5C10.2267 3.49911 9.48535 3.19154 8.93856 2.64475C8.39177 2.09796 8.0842 1.35661 8.08331 0.583333C8.08331 0.428624 8.02185 0.280251 7.91246 0.170854C7.80306 0.0614582 7.65469 0 7.49998 0C7.34527 0 7.1969 0.0614582 7.0875 0.170854C6.9781 0.280251 6.91664 0.428624 6.91664 0.583333C6.91576 1.35661 6.60818 2.09796 6.06139 2.64475C5.5146 3.19154 4.77325 3.49911 3.99998 3.5C3.84527 3.5 3.6969 3.56146 3.5875 3.67085C3.4781 3.78025 3.41664 3.92862 3.41664 4.08333C3.41664 4.23804 3.4781 4.38642 3.5875 4.49581C3.6969 4.60521 3.84527 4.66667 3.99998 4.66667Z" fill="url(#paint0_linear_2155_27114)"/>
<path d="M22.6667 25.6666C23.311 25.6666 23.8333 25.1443 23.8333 24.5C23.8333 23.8556 23.311 23.3333 22.6667 23.3333C22.0223 23.3333 21.5 23.8556 21.5 24.5C21.5 25.1443 22.0223 25.6666 22.6667 25.6666Z" fill="url(#paint1_linear_2155_27114)"/>
<path d="M2.83329 16.3333C3.47763 16.3333 3.99996 15.811 3.99996 15.1667C3.99996 14.5223 3.47763 14 2.83329 14C2.18896 14 1.66663 14.5223 1.66663 15.1667C1.66663 15.811 2.18896 16.3333 2.83329 16.3333Z" fill="url(#paint2_linear_2155_27114)"/>
<path d="M26.1667 15.1666C26.811 15.1666 27.3333 14.6443 27.3333 14C27.3333 13.3556 26.811 12.8333 26.1667 12.8333C25.5223 12.8333 25 13.3556 25 14C25 14.6443 25.5223 15.1666 26.1667 15.1666Z" fill="url(#paint3_linear_2155_27114)"/>
</g>
<defs>
<linearGradient id="paint0_linear_2155_27114" x1="5.56783" y1="8.9102" x2="21.7995" y2="20.6623" gradientUnits="userSpaceOnUse">
<stop stop-color="#FFE98D"/>
<stop offset="0.1" stop-color="#FED694"/>
<stop offset="0.91" stop-color="#FC3DD3"/>
</linearGradient>
<linearGradient id="paint1_linear_2155_27114" x1="21.8107" y1="24.0778" x2="23.2139" y2="25.243" gradientUnits="userSpaceOnUse">
<stop stop-color="#FFE98D"/>
<stop offset="0.1" stop-color="#FED694"/>
<stop offset="0.91" stop-color="#FC3DD3"/>
</linearGradient>
<linearGradient id="paint2_linear_2155_27114" x1="1.97735" y1="14.7444" x2="3.38054" y2="15.9097" gradientUnits="userSpaceOnUse">
<stop stop-color="#FFE98D"/>
<stop offset="0.1" stop-color="#FED694"/>
<stop offset="0.91" stop-color="#FC3DD3"/>
</linearGradient>
<linearGradient id="paint3_linear_2155_27114" x1="25.3107" y1="13.5778" x2="26.7139" y2="14.743" gradientUnits="userSpaceOnUse">
<stop stop-color="#FFE98D"/>
<stop offset="0.1" stop-color="#FED694"/>
<stop offset="0.91" stop-color="#FC3DD3"/>
</linearGradient>
<clipPath id="clip0_2155_27114">
<rect width="28" height="28" fill="white" transform="translate(0.5)"/>
</clipPath>
</defs>
</svg>
