<svg width="132" height="48" viewBox="0 0 132 48" fill="none" xmlns="http://www.w3.org/2000/svg">
    <path d="M62.0465 35V19.7916H66.8272L66.9876 21.1392C67.6721 20.6472 68.4422 20.2515 69.2978 19.952C70.1534 19.6312 71.0731 19.4708 72.0571 19.4708C73.0838 19.4708 73.8859 19.6312 74.4635 19.952C75.041 20.2515 75.4902 20.6793 75.8111 21.2354C76.5169 20.7221 77.3084 20.305 78.1854 19.9841C79.0838 19.6419 80.1319 19.4708 81.3297 19.4708C83.1051 19.4708 84.4099 19.9306 85.2441 20.8504C86.0783 21.7702 86.4954 23.1713 86.4954 25.0536V35H81.3939V25.6632C81.3939 24.829 81.2121 24.2301 80.8484 23.8664C80.5062 23.4814 79.9394 23.2889 79.1479 23.2889C78.6559 23.2889 78.1747 23.3958 77.7041 23.6097C77.2335 23.8023 76.8378 24.0803 76.5169 24.444C76.5597 24.6793 76.5811 24.9039 76.5811 25.1178C76.6025 25.3317 76.6132 25.5883 76.6132 25.8878V35H71.8004V25.599C71.8004 24.829 71.6614 24.2515 71.3833 23.8664C71.1266 23.4814 70.6239 23.2889 69.8753 23.2889C69.3405 23.2889 68.8379 23.4279 68.3673 23.706C67.8967 23.9841 67.4689 24.3049 67.0839 24.6686V35H62.0465ZM96.6188 35.3209C93.9664 35.3209 91.8381 34.6685 90.2339 33.3637C88.6296 32.0375 87.8275 30.0482 87.8275 27.3958C87.8275 24.9787 88.4906 23.0536 89.8168 21.6205C91.1429 20.1873 93.1322 19.4708 95.7846 19.4708C98.2017 19.4708 100.073 20.0911 101.4 21.3317C102.726 22.5723 103.389 24.2408 103.389 26.337V29.0642H92.6082C92.8435 30.0696 93.3889 30.7754 94.2445 31.1819C95.1215 31.5669 96.3087 31.7594 97.806 31.7594C98.6402 31.7594 99.4851 31.6845 100.341 31.5348C101.218 31.3851 101.945 31.1926 102.523 30.9573V34.3262C101.795 34.6685 100.929 34.9144 99.9236 35.0642C98.9183 35.2353 97.8167 35.3209 96.6188 35.3209ZM92.6082 26.0803H98.8969V25.4065C98.8969 24.6579 98.6723 24.0696 98.2231 23.6418C97.7739 23.1926 97.0145 22.968 95.945 22.968C94.7044 22.968 93.8381 23.2247 93.3461 23.7381C92.8542 24.2301 92.6082 25.0108 92.6082 26.0803ZM112.978 35.3209C110.048 35.3209 107.887 34.6471 106.497 33.2995C105.107 31.9305 104.412 29.9626 104.412 27.3958C104.412 24.8504 105.107 22.8932 106.497 21.5242C107.909 20.1552 110.069 19.4708 112.978 19.4708C115.909 19.4708 118.069 20.1552 119.459 21.5242C120.871 22.8932 121.577 24.8504 121.577 27.3958C121.577 29.9626 120.882 31.9305 119.492 33.2995C118.101 34.6471 115.93 35.3209 112.978 35.3209ZM112.978 31.2781C114.176 31.2781 115.032 30.9787 115.545 30.3797C116.058 29.7808 116.315 28.7862 116.315 27.3958C116.315 26.0054 116.058 25.0108 115.545 24.4119C115.032 23.813 114.176 23.5135 112.978 23.5135C111.802 23.5135 110.957 23.813 110.444 24.4119C109.93 25.0108 109.673 26.0054 109.673 27.3958C109.673 28.7862 109.93 29.7808 110.444 30.3797C110.957 30.9787 111.802 31.2781 112.978 31.2781Z" fill="white"/>
    <path d="M11.6636 35V19.7916H16.4763L16.6368 21.1071C17.2571 20.6793 18.0378 20.305 18.979 19.9841C19.9202 19.6419 20.9255 19.4708 21.995 19.4708C23.9629 19.4708 25.396 19.9413 26.2944 20.8825C27.1928 21.8237 27.642 23.2782 27.642 25.2461V35H22.4763V25.6632C22.4763 24.8076 22.2945 24.198 21.9308 23.8343C21.5672 23.4707 20.9148 23.2889 19.9736 23.2889C19.4175 23.2889 18.8507 23.4172 18.2731 23.6739C17.6956 23.9306 17.2143 24.2515 16.8293 24.6365V35H11.6636Z" fill="white"/>
    <path d="M37.7931 35.3413C34.8119 35.3413 32.6141 34.9131 31.1997 33.5491C29.7852 32.1635 29.078 30.1717 29.078 27.5737C29.078 24.9974 29.7852 23.0164 31.1997 21.6308C32.6359 20.2452 34.8337 19.8061 37.7931 19.8061C40.7743 19.8061 42.9721 20.2452 44.3866 21.6308C45.8228 23.0164 46.5409 24.9974 46.5409 27.5737C46.5409 30.1717 45.8337 32.1635 44.4192 33.5491C43.0048 34.9131 40.7961 35.3413 37.7931 35.3413ZM37.7931 31.5032C39.0117 31.5032 39.8821 31.2001 40.4044 30.5939C40.9266 29.9877 41.1878 28.981 41.1878 27.5737C41.1878 26.1665 40.9266 25.1598 40.4044 24.5536C39.8821 23.9474 39.0117 23.6443 37.7931 23.6443C36.5963 23.6443 35.7367 23.9474 35.2145 24.5536C34.6922 25.1598 34.4311 26.1665 34.4311 27.5737C34.4311 28.981 34.6922 29.9877 35.2145 30.5939C35.7367 31.2001 36.5963 31.5032 37.7931 31.5032Z" fill="white"/>
    <path d="M51.9141 35.3444C48.9329 35.3444 46.7351 34.9131 45.3207 33.5491C43.9062 32.1635 43.199 30.1717 43.199 27.5737C43.199 24.9974 43.9062 23.0164 45.3207 21.6308C46.7569 20.2452 48.9547 19.8031 51.9141 19.8031C54.8953 19.8031 57.0931 20.2452 58.5076 21.6308C59.9438 23.0164 60.6619 24.9974 60.6619 27.5737C60.6619 30.1717 59.9547 32.1635 58.5402 33.5491C57.1258 34.9131 54.9171 35.3444 51.9141 35.3444ZM51.9141 31.5032C53.1327 31.5032 54.0031 31.2001 54.5254 30.5939C55.0477 29.9877 55.3088 28.981 55.3088 27.5737C55.3088 26.1665 55.0477 25.1598 54.5254 24.5536C54.0031 23.9474 53.1327 23.6443 51.9141 23.6443C50.7173 23.6443 49.8578 23.9474 49.3355 24.5536C48.8132 25.1598 48.5521 26.1665 48.5521 27.5737C48.5521 28.981 48.8132 29.9877 49.3355 30.5939C49.8578 31.2001 50.7173 31.5032 51.9141 31.5032Z" fill="white"/>
    <path d="M8.14664 6.01562L9.8748 12.4341L16.2933 14.1623L9.8748 15.8904L8.14664 22.3089L6.41847 15.8904L0 14.1623L6.41847 12.4341L8.14664 6.01562Z" fill="#CCBD3D"/>
    <path fill-rule="evenodd" clip-rule="evenodd" d="M115.964 38.9607C120.213 39.9394 124.452 37.2878 125.43 33.0382C125.859 31.1768 125.591 29.3175 124.798 27.7334C128.29 29.185 130.33 32.9852 129.453 36.7944C128.474 41.044 124.236 43.6956 119.986 42.7169C117.598 42.1669 115.715 40.5874 114.696 38.5551C115.1 38.7229 115.523 38.8593 115.964 38.9607Z" fill="#CCBD3D"/>
</svg>
