<svg width="24" height="24" viewBox="0 0 24 24" fill="none" xmlns="http://www.w3.org/2000/svg">
    <path fill-rule="evenodd" clip-rule="evenodd" d="M16.4825 0.750033C16.9513 0.281355 17.5871 0.0180664 18.25 0.0180664C18.9129 0.0180664 19.5487 0.281355 20.0175 0.750033L23.25 3.98253C23.7187 4.45135 23.982 5.08712 23.982 5.75003C23.982 6.41294 23.7187 7.04871 23.25 7.51753L21.2675 9.50003L14.5 2.73253L16.4825 0.750033ZM12.7325 4.50003L1.4825 15.75C1.01363 16.2188 0.750142 16.8545 0.75 17.5175V20.75C0.75 21.4131 1.01339 22.049 1.48223 22.5178C1.95107 22.9866 2.58696 23.25 3.25 23.25H6.4825C7.14549 23.2499 7.78127 22.9864 8.25 22.5175L19.5 11.2675L12.7325 4.50003Z" fill="white"/>
</svg>
